<svg xmlns="http://www.w3.org/2000/svg" width="54.257" height="48.24" viewBox="0 0 54.257 48.24"><defs><style>.a{fill:#2CBFA5;}</style></defs><path class="a" d="M51.5.892A1.465,1.465,0,0,0,48.838.779,16.155,16.155,0,0,1,34.717,9.022H27.181A18.092,18.092,0,0,0,9.093,27.11a18.627,18.627,0,0,0,.141,1.931c6.01-4.305,14.687-7.96,26.99-7.96a1.507,1.507,0,0,1,0,3.015C12.541,24.1,2.5,38.612.276,44.067a3.019,3.019,0,0,0,5.586,2.289,24.784,24.784,0,0,1,6.773-8.535,18.047,18.047,0,0,0,16.476,7.273c14.79-1.074,25.2-14.338,25.2-30.579A34.257,34.257,0,0,0,51.5.892Z" transform="translate(-0.055 0.024)"/></svg>